# xmcd
# 
# Track frame offsets:
#     150
#     18057
#     33941
#     51295
#     76088
#     100245
#     123269
#     137133
#     162564
#     183685
#     200751
#     218291
#     234768
#     249192
#     271657
# 
# Disc length: 3805
# 
# Revision: 9
# Processed by: cddbd v1.5.2PL0 Copyright (c) Steve Scherf et al.
# Submitted via: fre:ac v1.0.31
# 
DISCID=ba0edb0f
DTITLE=Van Morrison - Roll With The Punches
DYEAR=2017
DGENRE=Rock/Pop
TTITLE0=Roll With The Punches
TTITLE1=Transformation
TTITLE2=I Can Tell
TTITLE3=Stormy Monday - Lonely Avenue
TTITLE4=Goin' To Chicago
TTITLE5=Fame
TTITLE6=Too Much Trouble
TTITLE7=Bring It On Home To Me
TTITLE8=Ordinary People
TTITLE9=How Far From God
TTITLE10=Teardrops From My Eyes
TTITLE11=Automobile Blues
TTITLE12=Benediction
TTITLE13=Mean Old World
TTITLE14=Ride On Josephine
EXTD=YEAR: 2017
EXTT0=
EXTT1=
EXTT2=
EXTT3=
EXTT4=
EXTT5=
EXTT6=
EXTT7=
EXTT8=
EXTT9=
EXTT10=
EXTT11=
EXTT12=
EXTT13=
EXTT14=
PLAYORDER=
